<svg width="42" height="42" viewBox="0 0 42 42" fill="none" xmlns="http://www.w3.org/2000/svg">
<g clip-path="url(#clip0_581_143)">
<path d="M21 15.75C19.6076 15.75 18.2723 16.3031 17.2877 17.2877C16.3031 18.2723 15.75 19.6076 15.75 21C15.75 22.3924 16.3031 23.7277 17.2877 24.7123C18.2723 25.6969 19.6076 26.25 21 26.25C22.3924 26.25 23.7277 25.6969 24.7123 24.7123C25.6969 23.7277 26.25 22.3924 26.25 21C26.25 19.6076 25.6969 18.2723 24.7123 17.2877C23.7277 16.3031 22.3924 15.75 21 15.75ZM21 12.25C23.3206 12.25 25.5462 13.1719 27.1872 14.8128C28.8281 16.4538 29.75 18.6794 29.75 21C29.75 23.3206 28.8281 25.5462 27.1872 27.1872C25.5462 28.8281 23.3206 29.75 21 29.75C18.6794 29.75 16.4538 28.8281 14.8128 27.1872C13.1719 25.5462 12.25 23.3206 12.25 21C12.25 18.6794 13.1719 16.4538 14.8128 14.8128C16.4538 13.1719 18.6794 12.25 21 12.25ZM32.375 11.8125C32.375 12.3927 32.1445 12.9491 31.7343 13.3593C31.3241 13.7695 30.7677 14 30.1875 14C29.6073 14 29.0509 13.7695 28.6407 13.3593C28.2305 12.9491 28 12.3927 28 11.8125C28 11.2323 28.2305 10.6759 28.6407 10.2657C29.0509 9.85547 29.6073 9.625 30.1875 9.625C30.7677 9.625 31.3241 9.85547 31.7343 10.2657C32.1445 10.6759 32.375 11.2323 32.375 11.8125ZM21 7C16.6705 7 15.9635 7.01225 13.9493 7.1015C12.5773 7.16625 11.6567 7.35 10.8027 7.6825C10.0432 7.9765 9.4955 8.32825 8.91275 8.91275C8.36501 9.44195 7.94387 10.088 7.68075 10.8027C7.34825 11.6602 7.1645 12.579 7.1015 13.9493C7.0105 15.8813 7 16.5568 7 21C7 25.3295 7.01225 26.0365 7.1015 28.0507C7.16625 29.421 7.35 30.3433 7.68075 31.1955C7.97825 31.9568 8.32825 32.5045 8.90925 33.0855C9.499 33.6735 10.0468 34.0252 10.7993 34.3157C11.6637 34.65 12.5843 34.8355 13.9493 34.8985C15.8813 34.9895 16.5568 35 21 35C25.3295 35 26.0365 34.9877 28.0507 34.8985C29.4192 34.8337 30.3415 34.65 31.1955 34.3193C31.9533 34.0235 32.5045 33.6718 33.0855 33.0908C33.6753 32.501 34.027 31.9533 34.3175 31.2008C34.65 30.338 34.8355 29.4157 34.8985 28.0507C34.9895 26.1187 35 25.4433 35 21C35 16.6705 34.9877 15.9635 34.8985 13.9493C34.8337 12.5808 34.65 11.6567 34.3175 10.8027C34.0538 10.0888 33.6334 9.44293 33.0872 8.91275C32.5583 8.36473 31.9121 7.94354 31.1973 7.68075C30.3398 7.34825 29.4192 7.1645 28.0507 7.1015C26.1187 7.0105 25.4433 7 21 7ZM21 3.5C25.7547 3.5 26.348 3.5175 28.2135 3.605C30.0772 3.6925 31.346 3.98475 32.4625 4.41875C33.6175 4.86325 34.5905 5.46525 35.5635 6.4365C36.4534 7.31132 37.1419 8.36953 37.5812 9.5375C38.0135 10.6522 38.3075 11.9227 38.395 13.7865C38.4772 15.652 38.5 16.2452 38.5 21C38.5 25.7547 38.4825 26.348 38.395 28.2135C38.3075 30.0772 38.0135 31.346 37.5812 32.4625C37.1432 33.6311 36.4545 34.6896 35.5635 35.5635C34.6884 36.4531 33.6303 37.1416 32.4625 37.5812C31.3477 38.0135 30.0772 38.3075 28.2135 38.395C26.348 38.4772 25.7547 38.5 21 38.5C16.2452 38.5 15.652 38.4825 13.7865 38.395C11.9227 38.3075 10.654 38.0135 9.5375 37.5812C8.36907 37.1428 7.31067 36.4542 6.4365 35.5635C5.54646 34.6888 4.85788 33.6306 4.41875 32.4625C3.98475 31.3477 3.6925 30.0772 3.605 28.2135C3.52275 26.348 3.5 25.7547 3.5 21C3.5 16.2452 3.5175 15.652 3.605 13.7865C3.6925 11.921 3.98475 10.654 4.41875 9.5375C4.85666 8.36881 5.54541 7.31031 6.4365 6.4365C7.31092 5.54615 8.36925 4.85753 9.5375 4.41875C10.654 3.98475 11.921 3.6925 13.7865 3.605C15.652 3.52275 16.2452 3.5 21 3.5Z" fill="white"/>
</g>
<defs>
<clipPath id="clip0_581_143">
<rect width="42" height="42" fill="white"/>
</clipPath>
</defs>
</svg>
